HIERARCHY
ROOT Hips
{
  OFFSET 0 0 0
  CHANNELS 6 Xposition Yposition Zposition Zrotation Xrotation Yrotation
  JOINT Spine
  {
    OFFSET 0 9.9235 -1.22729
    CHANNELS 3 Zrotation Xrotation Yrotation
    JOINT Spine1
    {
      OFFSET -9.9969e-05 11.6454 -1.4223
      CHANNELS 3 Zrotation Xrotation Yrotation
      JOINT Spine2
      {
        OFFSET 9.98118e-05 13.3602 -1.6265
        CHANNELS 3 Zrotation Xrotation Yrotation
        JOINT Neck
        {
          OFFSET 0 15.0325 0.7929
          CHANNELS 3 Zrotation Xrotation Yrotation
          JOINT Head
          {
            OFFSET 0 10.3218 3.1424
            CHANNELS 3 Zrotation Xrotation Yrotation
            End Site
            {
              OFFSET 0.0002 18.4747 6.6364
            }
          }
        }
        JOINT LeftShoulder
        {
          OFFSET 6.1058 9.1104 0.7056
          CHANNELS 3 Zrotation Xrotation Yrotation
          JOINT LeftArm
          {
            OFFSET 12.655 -0.265904 -2.60091
            CHANNELS 3 Zrotation Xrotation Yrotation
            JOINT LeftForeArm
            {
              OFFSET 27.4047 0 0
              CHANNELS 3 Zrotation Xrotation Yrotation
              JOINT LeftHand
              {
                OFFSET 27.6145 -1.98104e-05 0
                CHANNELS 3 Zrotation Xrotation Yrotation
                End Site
                {
                  OFFSET 12.7755 0 0
                }
              }
            }
          }
        }
        JOINT RightShoulder
        {
          OFFSET -6.1057 9.1105 0.7056
          CHANNELS 3 Zrotation Xrotation Yrotation
          JOINT RightArm
          {
            OFFSET -12.655 -0.265999 -2.6009
            CHANNELS 3 Zrotation Xrotation Yrotation
            JOINT RightForeArm
            {
              OFFSET -27.4047 0 0
              CHANNELS 3 Zrotation Xrotation Yrotation
              JOINT RightHand
              {
                OFFSET -27.6145 0 0
                CHANNELS 3 Zrotation Xrotation Yrotation
                End Site
                {
                  OFFSET -12.7755 0 0
                }
              }
            }
          }
        }
      }
    }
  }
  JOINT RightUpLeg
  {
    OFFSET -9.12449 -6.6564 -0.0554004
    CHANNELS 3 Zrotation Xrotation Yrotation
    JOINT RightLeg
    {
      OFFSET -0.245231 -40.5954 -0.51698
      CHANNELS 3 Zrotation Xrotation Yrotation
      JOINT RightFoot
      {
        OFFSET 0.244701 -42.0479 -2.0602
        CHANNELS 3 Zrotation Xrotation Yrotation
        JOINT RightToe
        {
          OFFSET -0.373402 -10.4922 12.6407
          CHANNELS 3 Zrotation Xrotation Yrotation
          End Site
          {
            OFFSET 0 0 9.9925
          }
        }
      }
    }
  }
  JOINT LeftUpLeg
  {
    OFFSET 9.1245 -6.6564 -0.055401
    CHANNELS 3 Zrotation Xrotation Yrotation
    JOINT LeftLeg
    {
      OFFSET 0.245022 -40.5954 -0.518725
      CHANNELS 3 Zrotation Xrotation Yrotation
      JOINT LeftFoot
      {
        OFFSET -0.244696 -42.048 -2.0576
        CHANNELS 3 Zrotation Xrotation Yrotation
        JOINT LeftToe
        {
          OFFSET 0.373399 -10.4922 12.6407
          CHANNELS 3 Zrotation Xrotation Yrotation
          End Site
          {
            OFFSET 0 0 9.9925
          }
        }
      }
    }
  }
}
MOTION
Frames: 7
Frame Time:	0.0333333
-0.497348    95.345   1872.16  2.47208 -3.60119 -23.9622 -2.83884  5.00534 -2.88575 0.434824 0.829775 -4.58246 -0.0385042    4.28921  -0.723361  -7.71194   6.03426 -0.652919 -58.3838  17.5516 -13.6869 -0.215651 -0.481672  -20.3201 -2.65148  11.1021 -2.64163 13.6836 5.43582 10.0498  63.4403 -19.9116 -1.77767  0.552553 -0.303911   28.3667 10.8795 19.4308 3.05238  1.85562 0.354517   2.6436 -4.44029 -4.82329  17.7985    1.058 -10.1205  9.53945   2.1823  26.4153 -2.51332  -3.81762  -12.9495 -0.282194 -0.453401 -0.732942   2.67354 -5.26531  1.89584 -11.7708 -1.39453  22.4894 -7.31694   5.8973 -21.5753 -2.35504 0.0209472  0.300402  0.141718 
-0.128574   95.1557   1873.67  2.91394 -3.63087 -23.7826 -3.21774  3.73607 -3.20901 0.574086 0.159851 -5.68297 -0.139395   4.67176  -1.21864  -7.71626   6.76881 -0.474959 -53.1162  19.8029 -19.4748 -0.295378 -0.648004   -23.123 -1.11236  9.14566 -2.82908  14.282 6.12771 9.86491   57.9232  -19.4529 -0.797095   0.58825 -0.922144   32.3098 8.89932 16.1824 2.83557   1.5439 0.723618  2.76732 -4.32022 -4.64572  19.2247 0.312845 -11.3835  10.2221  2.69874  30.0569 -4.11185 -4.26929 -13.1169 0.271125 0.639319 -3.05959  2.45115 -6.35622  2.70829 -11.9848 -1.47978  22.3838 -6.27079  6.60535 -22.2334 -2.96561 0.026077 0.293743  0.14327 
0.316941  95.0443  1875.14  3.22782 -3.43979 -24.1711 -3.79146  2.89021 -3.46337  0.952445 -0.677223  -6.29384 -0.294012   4.85098  -1.62851  -7.46748   7.25425 -0.585205 -45.8014  20.6542 -26.9698 -0.600371 -0.945835  -25.8451  1.31991  6.41406 -2.42507 14.8941  6.5462 9.84241 51.3654 -19.343 1.86941 0.533271  -1.2102  36.1923  6.2068 13.5591 2.48158 1.69091 0.85436 2.71249 -4.25579 -4.33392  21.0959 -0.321597  -13.1082   10.6348  2.98583  33.7082 -3.90777 -5.04551 -13.8989  0.34367 0.308192   -3.332  2.25884 -7.32654  3.48919 -12.1371  -1.5476  21.6243 -4.92125  7.21463 -22.4576 -3.44989 -0.00200819    0.457125    0.409794 
0.774619  94.9618   1876.5  3.42315 -3.21191 -24.4052 -4.70223  2.60895 -3.76151  1.28009 -1.11059 -6.28484 -0.248935   4.62975  -2.05719 -6.54961  7.46729 -1.38753 -37.3487  19.0816 -35.5952 -0.554269  -1.33697  -27.9715  4.29965  3.20657 -2.05065 15.1833 6.69366 9.98195  44.5323 -20.0326  6.57705 0.333492 -1.45411  39.3965 3.15356 11.7259 1.89158 1.81838 1.00926 2.67341 -4.40634 -3.95968   23.304 -0.973559  -15.4816   10.7384  3.12695  36.7099 -3.00023 -5.32257 -14.7635 0.172181 0.66934 -3.7008 2.04448  -8.0694  4.44031 -12.3409 -1.58925  20.4438 -3.62542  7.69752 -22.5477 -4.17833 0.277853  0.58032 0.749932 
 1.2114 94.8948 1877.79  3.52095  -3.0668 -24.3632 -5.70967  3.09524 -3.89715  1.37581 -1.17194 -5.60787 -0.345039   3.94438  -2.55603 -4.97278  7.26831 -2.93218 -29.2748  14.4323 -43.5612 -0.317124  -1.72578  -29.7668  7.53378 0.458515 -1.79886 14.9204 6.45785 10.4749  37.8816 -22.1333  12.6546 -0.0777275   -1.69373    41.6525 -0.238471   10.8868   1.39734 1.93997 1.24185 2.65222 -4.76451 -3.62914  25.7011 -1.39509 -18.5381  10.5332  3.24002  38.8565 -3.37169   -4.98825   -15.2104 -0.0213418  1.00351 -3.88772  1.59049 -8.63004  5.61837 -12.5812 -1.61945   18.987 -2.35643   8.0763 -22.2829 -5.12714 0.0233632 -0.732654   2.62081 
1.49942 94.8243    1879  3.51629 -2.86879 -24.4601 -6.77857  4.18868 -3.90841    1.1678 -0.972697   -4.4449 -0.6571 2.88683  -2.836 -2.81572  6.58636 -4.94891 -22.4209  7.23151 -49.7461 0.0258352  -1.94805  -30.6507  10.9265 -1.24101 -1.35214  14.253  5.7546 11.4365  31.5192 -25.7015  19.0926 -0.597944   -1.7789   43.0439 -3.76297  11.1468  1.13657 2.15816 1.66682  2.6168 -5.04529 -3.33082  27.9643 -1.00309 -22.2723  10.0702  3.11168  40.1631 -4.93964   -4.7608  -15.1029 -0.499399  1.25569 -4.24014 0.942827 -8.99548  6.64098 -13.0725 -1.56438  17.7101 -1.16522  7.68501 -21.8638 -6.11697  0.639567 -0.983829   2.88043 
1.49275 94.7643 1880.34  3.36599 -2.36842 -24.8913 -7.83503  5.32333 -4.03032  0.622656 -0.763464  -3.19872 -0.963101    1.7815  -2.78094 -0.469704   5.62232  -6.88086 -17.1811 -1.29215 -53.9322 0.487163 -2.09826 -30.6003   14.2255  -2.11079 -0.893892 13.3957 4.90863 12.2682  25.8638 -30.3568  25.7222 -1.08128 -1.60404  43.5271 -6.91848  12.4333  1.06144 2.33513  2.2153 2.66261  -5.0415 -3.11702  30.1469  0.61435 -26.2961  9.84385  2.82003  40.1784 -6.12987 -5.10696 -14.3606 -1.09223   1.4022 -4.35923 0.301003 -8.91832  7.59654 -13.8787  -1.46469   16.1763 -0.228262  6.30385 -21.2231 -6.66139  -0.24474 -0.704807   3.27835 
